<svg width="1280" height="176" viewBox="0 0 1280 176" fill="none" xmlns="http://www.w3.org/2000/svg">
<path d="M74.2489 2.83786C73.8756 2.68601 73.8755 2.68599 73.8755 2.39915C69.28 2.70339 64.6311 2.82202 59.9822 2.75352L58.3645 2.39915C57.285 2.34749 56.039 2.52867 54.8565 2.7006C53.7216 2.86562 52.6452 3.02212 51.8312 2.95601C51.7515 2.93029 51.6871 2.91191 51.6349 2.89704C51.4134 2.83387 51.4133 2.83386 51.4133 2.60167C50.3555 2.56281 49.3245 2.44291 48.3556 2.2473H47.7511L48.3556 2.60167V2.68603C45.2178 2.34006 41.9467 2.34006 38.8089 2.68603C37.6925 2.12377 34.656 2.12968 31.7065 2.13542C30.0533 2.13864 28.4274 2.1418 27.1822 2.04482C23.7816 1.75759 20.8215 1.92436 18.0192 2.08225C14.5661 2.2768 11.3524 2.45786 7.84885 1.75928C5.51107 2.28282 2.62222 2.59481 0 2.58134L6.52874e-05 173.419C2.37396 174.479 7.00105 174.393 11.4541 174.31C14.2972 174.256 17.0694 174.205 19.1389 174.454C20.3622 174.48 21.5856 174.266 22.8089 174.053C23.9638 173.851 25.1187 173.65 26.2736 173.65L28.6895 174.645C29.6024 174.795 30.7361 174.756 31.8816 174.717C33.0571 174.676 34.2452 174.635 35.2201 174.797C35.4834 174.839 35.6323 174.94 35.7867 175.045C36.0087 175.196 36.2421 175.354 36.8433 175.354C38.277 175.462 39.6998 175.334 41.0541 175.212C42.2316 175.106 43.3573 175.004 44.3932 175.067C45.0349 174.797 45.639 174.51 46.243 174.224C46.7967 174.245 47.2239 174.355 47.6822 174.473C48.2864 174.628 48.9446 174.797 50.0178 174.797C50.5662 174.797 50.7194 174.7 50.8479 174.619C50.9405 174.561 51.0202 174.51 51.2258 174.51C53.2487 174.351 55.3185 174.351 57.3412 174.51C58.506 174.457 59.6707 174.409 60.8408 174.361L60.847 174.36C61.9124 174.316 62.9822 174.272 64.0606 174.224C67.0504 174.114 70.3353 174.303 73.7967 174.502C77.7649 174.731 81.9653 174.973 86.2194 174.793C90.2996 174.613 94.7372 174.694 99.1026 174.774C104.148 174.867 109.097 174.957 113.285 174.641C116.878 174.369 120.917 174.504 124.71 174.631C129.167 174.78 133.284 174.918 135.935 174.371C136.011 174.404 150.317 174.691 152.016 174.506C156.487 174.259 161.02 174.356 165.418 174.793C169.656 174.821 173.887 174.628 178.026 174.219C178.784 174.12 180.095 174.166 181.489 174.216C182.939 174.267 184.478 174.322 185.575 174.219C186.196 174.015 187.847 174.113 189.635 174.22C191.98 174.36 194.56 174.514 195.353 174.016C195.89 174.084 196.43 174.156 196.974 174.228C199.835 174.607 202.783 174.998 205.696 174.84C206.011 174.858 206.151 174.834 206.31 174.807C206.455 174.783 206.616 174.756 206.941 174.756V174.047H207.319C207.642 174.38 208.133 174.674 208.754 174.908C211.056 174.671 216.568 174.317 218.116 174.908L218.159 174.903C218.494 174.87 218.679 174.852 218.789 174.83C218.923 174.804 218.947 174.773 219 174.704C219.029 174.667 219.066 174.618 219.134 174.553C219.703 174.62 220.207 174.768 220.569 174.975C223.205 174.987 225.838 174.817 228.461 174.647C232.363 174.395 236.244 174.144 240.085 174.495C240.973 174.547 241.949 174.519 242.863 174.493C243.737 174.469 244.554 174.446 245.181 174.495C247.522 174.735 249.916 174.854 252.316 174.849C254.108 174.785 255.818 174.966 257.482 175.142C259.744 175.382 261.919 175.612 264.094 175.204L264.138 175.195C264.424 175.141 264.539 175.119 264.585 175.096C264.615 175.08 264.616 175.065 264.617 175.038C264.618 175.003 264.62 174.948 264.698 174.849C264.698 174.849 271.267 175.305 272.06 175.204C272.456 175.153 272.862 175.107 273.268 175.06C273.673 175.014 274.079 174.968 274.475 174.917C279.684 175.086 285.083 175.288 289.952 175.626L311.733 175.511C312.952 175.525 314.171 175.542 315.39 175.56L315.394 175.56C318.44 175.603 321.485 175.646 324.531 175.646C326.204 175.487 327.923 175.442 329.627 175.511C333.067 175.752 336.532 175.916 340.008 176C341.242 175.835 342.505 175.716 343.783 175.646C351.013 176.012 358.304 176.085 365.565 175.865H371.868L374.51 175.443C375.416 175.491 376.313 175.535 377.206 175.578L377.21 175.579C378.214 175.628 379.212 175.676 380.211 175.73C380.782 175.741 381.29 175.751 381.742 175.76C384.437 175.813 385.151 175.828 385.611 175.803C385.777 175.794 385.91 175.779 386.091 175.76C386.642 175.702 387.639 175.596 391.37 175.443H401.563C409.609 174.988 408.743 175.206 408.216 175.338C407.766 175.452 407.562 175.503 413.349 175.021L417.804 175.224C421.197 175.319 424.602 175.319 427.996 175.224L434.074 175.73C437.763 176.005 441.097 175.657 443.955 175.359C445.658 175.181 447.192 175.021 448.532 175.021C449.111 175.021 449.593 175.104 450.108 175.193C450.866 175.323 451.697 175.466 453.023 175.376C453.582 175.333 453.993 175.184 454.367 175.049C454.726 174.919 455.051 174.802 455.439 174.802C456.13 174.706 456.996 174.816 457.879 174.929C459.167 175.093 460.493 175.262 461.366 174.802C465.402 175.419 470.797 175.298 476.047 175.181C478.115 175.135 480.16 175.089 482.091 175.089C484.36 175.062 486.707 175.026 489.11 174.99C497.142 174.87 505.798 174.74 514.252 174.869C515.457 174.718 516.736 174.55 518.015 174.382L518.028 174.38L523.728 174.734C524.615 174.754 525.241 174.53 525.768 174.341C526.138 174.208 526.458 174.093 526.786 174.093C528.861 174.26 530.817 174.647 532.485 175.224C533.354 175.183 534.441 175.182 535.587 175.182C538.677 175.181 542.202 175.18 543.055 174.38C543.972 174.216 545.162 174.41 546.435 174.617C546.996 174.708 547.574 174.802 548.151 174.869C550.807 174.829 553.498 174.785 556.199 174.74C559.14 174.692 562.093 174.643 565.026 174.599C566.384 174.734 567.593 174.869 568.801 175.021C569.358 175.005 569.897 174.923 570.361 174.784C570.825 174.644 571.198 174.453 571.443 174.228C574.871 174.742 576.328 174.702 577.652 174.666C579.113 174.626 580.412 174.591 584.016 175.308C584.447 175.24 584.908 175.161 585.376 175.08C586.301 174.921 587.253 174.757 588.055 174.667C588.66 175.224 589.868 175.224 591.529 175.224C592.461 174.754 593.031 174.162 593.152 173.536H593.34C596.18 174.716 599.852 175.414 603.722 175.511C605.476 174.772 607.732 174.316 610.132 174.216C612.532 174.115 614.939 174.375 616.972 174.954H617.16L617.316 174.916C618.612 174.604 619.294 174.439 619.803 173.806L623.578 174.532C625.035 174.363 626.405 174.071 627.617 173.671L631.693 174.313C632.87 174.356 633.663 174.223 634.499 174.082C635.299 173.948 636.139 173.806 637.394 173.806L639.621 174.448C640.945 174.411 642.234 174.244 643.396 173.958C644.65 173.991 645.248 174.146 645.919 174.32C646.278 174.413 646.658 174.511 647.171 174.599L651.436 173.891C652.144 174.075 652.279 174.031 652.479 173.965C652.664 173.905 652.905 173.826 653.701 173.891C654.657 173.968 655.375 174.082 656.003 174.182C657.559 174.429 658.562 174.588 661.252 173.891C661.61 174.016 662.117 174.087 662.65 174.161C663.407 174.267 664.215 174.38 664.724 174.667C666.613 174.755 668.52 174.609 670.236 174.245C671.417 174.391 672.566 174.583 673.671 174.819L678.956 174.313C680.689 174.65 682.607 174.75 684.468 174.599C684.666 174.568 684.774 174.51 684.886 174.45C685.071 174.35 685.266 174.245 685.901 174.245C686.922 174.296 688.179 174.348 689.54 174.405C692.257 174.519 695.391 174.65 697.906 174.819C698.925 174.886 707.456 174.245 707.456 174.245C710.035 174.836 711.79 174.72 713.781 174.588C715.2 174.494 716.739 174.392 718.781 174.532C721.524 174.797 724.318 174.939 727.124 174.954C728.096 174.923 729.075 174.828 730.056 174.732C731.246 174.616 732.437 174.5 733.617 174.5C736.681 174.622 739.768 174.554 742.79 174.297C743.586 174.224 743.946 174.352 744.249 174.46C744.435 174.526 744.599 174.584 744.828 174.584H745.847L746.413 174.264C746.96 174.202 748.739 174.269 750.629 174.341C752.913 174.426 755.362 174.519 756.002 174.399C758.046 174.017 763.269 174.561 767.419 174.993C770.246 175.287 772.575 175.53 773.065 175.393C775.309 174.955 777.756 174.764 780.199 174.836L779.596 174.33C778.58 174.389 777.553 174.389 776.538 174.33H776.123L775.933 173.756C776.087 173.757 776.254 173.758 776.429 173.759C778.658 173.769 782.329 173.787 780.614 174.819L780.992 174.971C782.701 175.044 784.415 175.206 786.126 175.368C789.481 175.686 792.825 176.002 796.092 175.638C797.748 175.855 799.5 175.884 801.188 175.722C802.373 175.666 803.729 175.742 805.104 175.818C807.451 175.948 809.856 176.081 811.569 175.571L812.362 175.925C816.612 175.438 821.006 175.25 825.385 175.368C826.163 175.382 826.936 175.406 827.704 175.431C828.837 175.467 829.961 175.503 831.085 175.503C833.396 175.195 835.823 175.097 838.22 175.216C838.304 175.168 838.378 175.123 838.449 175.079L838.45 175.079C838.831 174.846 839.111 174.674 840.032 174.575L840.447 175.216C841.801 175.015 843.005 174.796 844.209 174.577L844.222 174.575C844.601 174.852 844.76 174.876 845.445 174.981C845.51 174.991 845.581 175.002 845.657 175.014C846.25 174.941 846.555 174.848 846.872 174.751C847.14 174.669 847.417 174.585 847.884 174.508C847.884 174.523 847.876 174.54 847.863 174.558C847.852 174.575 847.836 174.594 847.819 174.614C847.703 174.752 847.567 174.915 848.715 174.862C849.572 174.823 849.981 174.732 850.412 174.636C850.721 174.567 851.041 174.496 851.546 174.44C851.513 174.207 851.499 173.973 851.504 173.739C851.739 173.774 851.967 173.819 852.188 173.873C852.707 173.814 853.198 173.718 853.643 173.587L853.584 173.738C854.583 173.588 855.605 173.469 856.642 173.384L856.695 173.314C856.996 173.351 857.293 173.395 857.586 173.445H858.001C857.321 173.529 856.642 173.609 855.962 173.689C855.283 173.769 854.603 173.85 853.924 173.934H853.508L853.735 174.727C854.686 174.68 854.717 174.691 855.238 174.885L855.358 174.929C856.109 174.899 856.876 174.817 857.622 174.738C859.391 174.548 861.042 174.372 862.077 174.929L862.682 175.081L862.87 174.356C863.028 174.377 863.211 174.402 863.404 174.428L863.414 174.429L863.416 174.43C864.137 174.528 864.979 174.643 865.098 174.643H865.513L864.908 174.001C863.927 173.866 863.739 173.9 863.097 174.221L861.662 174.069L860.228 173.09L861.662 173.293C861.957 173.223 862.257 173.397 862.562 173.573C862.862 173.746 863.166 173.922 863.475 173.873C863.593 173.201 864.157 172.561 865.098 172.034H865.324C865.397 172.059 865.462 172.081 865.52 172.101C865.889 172.226 866.018 172.27 866.343 172.59C866.721 172.962 866.155 173.333 865.098 173.451V173.586L867.929 173.158C868.291 173.071 868.617 173.187 868.895 173.286C869.18 173.387 869.416 173.471 869.589 173.299H870.194L871.817 173.158C870.228 173.582 868.366 173.754 866.533 173.647C866.658 173.794 866.768 173.887 866.857 173.964C867.036 174.118 867.136 174.204 867.136 174.508H867.324L869.589 174.356C869.529 174.304 869.487 174.266 869.456 174.237C869.382 174.168 869.363 174.152 869.279 174.138C869.247 174.133 869.204 174.128 869.146 174.122C869.06 174.112 868.938 174.097 868.759 174.069L869.174 173.934C869.941 174.046 870.639 174.237 871.212 174.491H872.232L872.647 174.288L871.402 173.866V173.58C871.78 173.491 872.201 173.444 872.628 173.444C873.056 173.444 873.476 173.491 873.855 173.58L873.883 173.55C874.307 173.102 875.135 172.225 876.686 172.01H879.556C880.258 171.857 880.32 171.764 880.381 171.672C880.448 171.57 880.515 171.47 881.422 171.294H882.064V172.003L881.179 172.01C881.002 172.247 881.129 172.296 881.425 172.408C881.572 172.463 881.759 172.534 881.972 172.652C879.984 172.478 879.366 172.799 878.708 173.14C878.342 173.33 877.963 173.526 877.328 173.647C877.53 173.71 877.733 173.746 877.93 173.782C878.211 173.833 878.482 173.882 878.725 174.001C879.183 173.963 879.604 173.863 879.933 173.715L880.349 174.001C882.51 174.034 884.672 174.18 886.832 174.325C890.18 174.549 893.522 174.774 896.845 174.579C896.973 174.587 897.1 174.596 897.228 174.606C897.492 174.627 897.755 174.651 898.018 174.674C898.706 174.737 899.39 174.799 900.089 174.799C903.387 174.555 906.756 174.555 910.053 174.799C909.645 174.866 911.867 175.373 912.507 175.373C912.756 175.313 912.978 175.231 913.156 175.133C913.324 175.034 913.458 174.92 913.529 174.799C918.871 174.268 924.373 174.148 929.796 174.445L931.236 175.086H932.027L931.422 174.512L931.609 174.309C933.961 174.38 935.975 174.392 937.809 174.403C942.157 174.429 945.498 174.449 949.956 175.221H950.942V175.086C950.749 175.054 950.555 175.023 950.36 174.991L950.358 174.991C949.408 174.836 948.446 174.68 947.502 174.512L947.093 174.309C947.173 174.305 947.257 174.304 947.339 174.304C947.394 174.305 947.449 174.307 947.502 174.309C949.227 174.546 951.067 174.546 952.791 174.309C953.049 174.388 953.262 174.493 953.404 174.617C953.547 174.741 953.627 174.879 953.618 175.018C954.604 174.866 954.604 174.647 954.604 174.158C958.373 174.293 965.093 174.377 969.698 174.377L974.8 174.158C977.298 174.32 979.822 174.394 982.347 174.377C985.342 174.061 988.436 173.986 991.485 174.158C991.947 174.093 992.373 173.973 992.693 173.809C993.022 173.646 993.244 173.445 993.333 173.23H993.52C994.028 173.418 994.012 173.494 993.97 173.693C993.956 173.763 993.938 173.847 993.938 173.955C996.453 174.133 999.013 174.081 1001.48 173.803C1003 174.022 1004.59 174.097 1006.17 174.023L1010.66 173.871C1012.22 174.109 1013.88 174.206 1015.53 174.158L1015.83 174.122L1016.14 174.087C1017.14 173.971 1018.21 173.848 1019.31 173.736C1021.58 173.695 1024.11 173.739 1026.8 173.785C1030.81 173.853 1035.15 173.928 1039.42 173.736C1040.23 173.702 1042.02 173.806 1043.66 173.902C1045.25 173.996 1046.7 174.081 1046.98 174.023C1047.18 173.98 1047.22 173.902 1047.26 173.824C1047.34 173.686 1047.41 173.547 1048.37 173.601C1049.68 173.674 1050.96 173.76 1052.27 173.848L1052.28 173.848L1052.86 173.888C1055.96 173.71 1059.1 173.682 1062.22 173.803C1066.2 173.672 1070.15 173.689 1073.95 173.706C1078.43 173.726 1082.73 173.745 1086.65 173.516C1087.24 173.484 1087.95 173.598 1088.65 173.711C1089.39 173.831 1090.12 173.948 1090.68 173.888C1093.4 173.719 1096.13 173.719 1098.84 173.888C1102.6 173.697 1106.38 173.601 1110.17 173.601C1115.35 173.98 1120.62 174.025 1125.83 173.736C1127.9 173.588 1130.11 173.693 1132.23 173.793C1133.98 173.876 1135.67 173.956 1137.16 173.888C1141.81 173.668 1146.8 173.645 1151.74 173.623C1157.43 173.597 1163.06 173.571 1168.07 173.246C1169.47 173.15 1171.31 173.222 1173.27 173.298C1176.14 173.41 1179.28 173.532 1181.74 173.162L1181.32 173.601L1184.57 173.246L1184.99 173.516C1186.55 173.517 1188.09 173.349 1189.48 173.027C1190.46 173.227 1191.41 173.464 1192.31 173.736C1194.23 173.445 1196.34 173.527 1198.43 173.608C1201.06 173.71 1203.65 173.811 1205.75 173.162C1205.88 173.216 1205.97 173.251 1206.02 173.286C1206.12 173.35 1206.12 173.415 1206.12 173.601C1210.72 173.297 1215.37 173.178 1220.02 173.246L1221.64 173.601C1222.71 173.653 1223.96 173.471 1225.14 173.299C1226.28 173.134 1227.35 172.978 1228.17 173.044C1228.25 173.07 1228.31 173.088 1228.36 173.103C1228.42 173.117 1228.45 173.128 1228.48 173.14C1228.59 173.178 1228.59 173.219 1228.59 173.398C1229.64 173.437 1230.68 173.557 1231.64 173.753H1232.25L1231.64 173.398V173.314C1234.78 173.66 1238.05 173.66 1241.19 173.314C1242.31 173.876 1245.34 173.87 1248.29 173.865C1249.95 173.861 1251.57 173.858 1252.82 173.955C1256.22 174.242 1259.18 174.076 1261.98 173.918C1265.43 173.723 1268.65 173.542 1272.15 174.241C1274.49 173.717 1277.38 173.405 1280 173.419L1280 2.58133C1277.63 1.52061 1273 1.60712 1268.55 1.69038C1265.7 1.74354 1262.93 1.79537 1260.86 1.54643C1259.64 1.52039 1258.41 1.73378 1257.19 1.94717C1256.04 2.14862 1254.88 2.35007 1253.73 2.35007L1251.31 1.35457C1250.4 1.20466 1249.26 1.24383 1248.12 1.28341C1246.94 1.32402 1245.75 1.36507 1244.78 1.20271C1244.52 1.16118 1244.37 1.06006 1244.21 0.955205C1243.99 0.804403 1243.76 0.645895 1243.16 0.645895C1241.72 0.537594 1240.3 0.665839 1238.95 0.787904C1237.77 0.894043 1236.64 0.995509 1235.61 0.932729C1234.97 1.20269 1234.36 1.48955 1233.76 1.7764C1233.2 1.75456 1232.78 1.6448 1232.32 1.52705C1231.71 1.37183 1231.06 1.20271 1229.98 1.20271C1229.43 1.20271 1229.28 1.29955 1229.15 1.3807C1229.06 1.43922 1228.98 1.48957 1228.77 1.48957C1226.75 1.64917 1224.68 1.64917 1222.66 1.48957C1221.49 1.5426 1220.33 1.59099 1219.15 1.63961C1218.09 1.68381 1217.02 1.72819 1215.94 1.7764C1212.95 1.88645 1209.66 1.69721 1206.2 1.49778C1202.24 1.26916 1198.03 1.02716 1193.78 1.20741C1189.7 1.38744 1185.26 1.30604 1180.9 1.22596C1175.85 1.13342 1170.9 1.04265 1166.71 1.35926C1163.12 1.63076 1159.08 1.49572 1155.29 1.36892C1150.83 1.21991 1146.72 1.08227 1144.06 1.62924C1143.99 1.5955 1129.68 1.30862 1127.98 1.49422C1123.51 1.74134 1118.98 1.64436 1114.58 1.20741C1110.34 1.17901 1106.11 1.37153 1101.97 1.7811C1101.22 1.88031 1099.9 1.83368 1098.51 1.78413C1097.06 1.73257 1095.52 1.67784 1094.42 1.7811C1093.8 1.98544 1092.15 1.88676 1090.37 1.77995C1088.02 1.6398 1085.44 1.48564 1084.65 1.98357C1084.11 1.91606 1083.57 1.84429 1083.02 1.7721C1080.16 1.39254 1077.22 1.00153 1074.3 1.15991C1073.99 1.14233 1073.85 1.16597 1073.69 1.19265C1073.54 1.21717 1073.38 1.24425 1073.06 1.24425V1.95297H1072.68C1072.36 1.62042 1071.87 1.32584 1071.25 1.0924C1068.94 1.32864 1063.43 1.68296 1061.88 1.0924C1061.52 1.12847 1061.33 1.1474 1061.21 1.16981C1061 1.21028 1061.06 1.26209 1060.87 1.44672C1060.3 1.38024 1059.79 1.23202 1059.43 1.02488C1056.79 1.01308 1054.16 1.18335 1051.54 1.35302C1047.64 1.6054 1043.76 1.85644 1039.91 1.50487C1039.03 1.45313 1038.05 1.48073 1037.14 1.50657C1036.26 1.53128 1035.45 1.55438 1034.82 1.50487C1032.48 1.26483 1030.08 1.14595 1027.68 1.15055C1025.89 1.2149 1024.18 1.0338 1022.52 0.857657C1020.26 0.61815 1018.08 0.38781 1015.91 0.796177C1015.59 0.857185 1015.46 0.880074 1015.42 0.904225C1015.34 0.940188 1015.44 0.978952 1015.3 1.15055C1015.3 1.15055 1008.73 0.694942 1007.94 0.796177C1007.54 0.846795 1007.14 0.893201 1006.73 0.939606C1006.33 0.986011 1005.92 1.03242 1005.53 1.08303C1000.32 0.914309 994.917 0.711815 990.048 0.37434L968.267 0.489351C967.048 0.474889 965.829 0.457672 964.61 0.440456C961.563 0.397413 958.516 0.35437 955.469 0.35437C953.795 0.512606 952.077 0.558062 950.373 0.489351C946.933 0.247715 943.468 0.0843862 939.992 0C938.758 0.165253 937.495 0.28383 936.217 0.354371C928.987 -0.0118507 921.696 -0.085278 914.436 0.135027L908.132 0.135027L905.49 0.556865C904.583 0.509159 903.684 0.465198 902.79 0.421455C901.786 0.372352 900.787 0.323525 899.789 0.269985C895.81 0.19234 894.926 0.168165 894.389 0.197398C893.717 0.233917 893.585 0.353779 888.63 0.556865L878.437 0.556865C870.391 1.01212 871.257 0.794243 871.784 0.661527C872.234 0.548299 872.438 0.497055 866.651 0.978679L862.196 0.776208C858.803 0.680629 855.398 0.680629 852.004 0.776209L845.926 0.269985C842.237 -0.00488283 838.903 0.342876 836.045 0.640963C834.342 0.818645 832.808 0.97868 831.468 0.97868C830.889 0.97868 830.407 0.89589 829.892 0.807319C829.134 0.676886 828.303 0.533916 826.977 0.624356C826.418 0.667414 826.007 0.815963 825.633 0.951105C825.274 1.08074 824.949 1.19805 824.561 1.19805C823.87 1.29412 823.004 1.18368 822.121 1.07101C820.833 0.906639 819.507 0.737546 818.634 1.19805C814.598 0.58066 809.203 0.701494 803.953 0.819075C801.885 0.865385 799.84 0.91119 797.909 0.91119C795.64 0.938393 793.293 0.973653 790.889 1.00975C782.858 1.13039 774.202 1.26042 765.747 1.13053C764.543 1.28192 763.264 1.45006 761.985 1.61824L761.972 1.61988L756.272 1.26551C755.385 1.2457 754.759 1.47024 754.232 1.659C753.862 1.7917 753.542 1.90672 753.214 1.90672C751.139 1.74048 749.183 1.35267 747.515 0.776209C746.646 0.81731 745.559 0.817631 744.413 0.817969C741.323 0.818882 737.798 0.819923 736.945 1.61988C736.028 1.78382 734.838 1.59022 733.565 1.38304C733.004 1.29168 732.426 1.19767 731.849 1.13053C729.191 1.17095 726.499 1.21522 723.797 1.25966C720.857 1.30801 717.905 1.35656 714.974 1.40052C713.616 1.26554 712.407 1.13056 711.199 0.97868C710.642 0.99506 710.103 1.07701 709.639 1.21628C709.175 1.35556 708.802 1.54718 708.557 1.77174C705.129 1.25835 703.672 1.29793 702.348 1.33388C700.887 1.37355 699.588 1.40881 695.984 0.691823C695.553 0.759854 695.092 0.839316 694.624 0.919968C693.699 1.07935 692.747 1.24339 691.945 1.33303C691.34 0.776187 690.132 0.77621 688.471 0.77621C687.539 1.24594 686.969 1.8377 686.848 2.46356H686.659C683.82 1.28429 680.148 0.585895 676.278 0.489353C674.523 1.22778 672.267 1.6835 669.867 1.78436C667.467 1.8852 665.061 1.62545 663.028 1.04619L662.84 1.04619L662.683 1.08398C661.388 1.39597 660.706 1.56056 660.197 2.19358L656.422 1.46803C654.965 1.63727 653.595 1.92932 652.383 2.32853L648.307 1.68735C647.13 1.64424 646.337 1.77742 645.501 1.91795C644.701 2.0524 643.861 2.19358 642.606 2.19358L640.379 1.55237C639.055 1.58896 637.766 1.75609 636.604 2.04172C635.35 2.00874 634.752 1.85398 634.081 1.68013C633.722 1.58715 633.342 1.48871 632.829 1.40052L628.563 2.10919C627.856 1.92477 627.721 1.96888 627.521 2.03456C627.336 2.09508 627.095 2.17392 626.299 2.10919C625.343 2.03155 624.625 1.91764 623.997 1.818C622.441 1.57115 621.438 1.41194 618.748 2.10919C618.39 1.98369 617.883 1.91293 617.35 1.83859C616.593 1.733 615.785 1.62017 615.276 1.33303C613.387 1.24479 611.48 1.39073 609.764 1.75484C608.583 1.60944 607.434 1.41746 606.329 1.18115L601.044 1.68735C599.311 1.35004 597.393 1.25024 595.532 1.40052C595.334 1.43227 595.226 1.49032 595.114 1.55038C594.929 1.64986 594.734 1.75484 594.099 1.75484C593.078 1.70414 591.821 1.65157 590.46 1.59459C587.743 1.48092 584.609 1.34976 582.094 1.18115C581.075 1.11366 572.544 1.75484 572.544 1.75484C569.965 1.16372 568.21 1.28016 566.219 1.41225C564.8 1.50638 563.261 1.60846 561.219 1.46803C558.476 1.20281 555.682 1.0615 552.876 1.0462C551.904 1.07668 550.925 1.17224 549.944 1.26788C548.754 1.38398 547.563 1.50018 546.383 1.50018C543.319 1.37771 540.232 1.4459 537.21 1.7027C536.414 1.77598 536.054 1.6479 535.751 1.54012C535.565 1.47417 535.401 1.41582 535.171 1.41582H534.153L533.587 1.73642C533.04 1.79756 531.261 1.73064 529.371 1.65949C527.087 1.57353 524.638 1.4814 523.998 1.60142C521.954 1.98285 516.731 1.43919 512.58 1.00715C509.754 0.712933 507.424 0.470474 506.935 0.607181C504.691 1.04491 502.244 1.23588 499.801 1.16405L500.404 1.67022C501.42 1.61083 502.447 1.61083 503.462 1.67022H503.877L504.067 2.24391C503.912 2.24268 503.746 2.2419 503.571 2.24108C501.341 2.2306 497.671 2.21336 499.386 1.18087L499.008 1.02902C497.299 0.95641 495.585 0.794075 493.874 0.632055C490.519 0.314211 487.175 -0.00242371 483.908 0.36193C482.251 0.14484 480.499 0.115812 478.812 0.277521C477.627 0.333624 476.271 0.258445 474.896 0.182177C472.549 0.0520133 470.144 -0.0813201 468.431 0.429374L467.638 0.0750501C463.388 0.561843 458.994 0.749741 454.615 0.631892C453.837 0.618248 453.064 0.593569 452.296 0.569007C451.163 0.532819 450.039 0.496888 448.915 0.496888C446.604 0.805123 444.177 0.902697 441.78 0.783768C441.696 0.831756 441.621 0.877638 441.55 0.921348C441.169 1.15427 440.889 1.3255 439.968 1.42495L439.553 0.783768C438.199 0.985445 436.995 1.20403 435.791 1.42252L435.778 1.42495C435.399 1.14786 435.24 1.12356 434.556 1.01892C434.49 1.00886 434.419 0.99807 434.343 0.986239C433.75 1.0594 433.445 1.15239 433.128 1.24908C432.86 1.33078 432.583 1.41513 432.116 1.49242C432.116 1.46264 432.148 1.42548 432.18 1.38637C432.297 1.24814 432.433 1.08549 431.285 1.13809C430.428 1.17741 430.019 1.26825 429.587 1.36394C429.279 1.43251 428.958 1.50357 428.454 1.55993C428.487 1.79349 428.501 2.02746 428.496 2.26137C428.261 2.22575 428.033 2.18095 427.812 2.12714C427.293 2.18567 426.802 2.28238 426.357 2.41252L426.416 2.26212C425.417 2.41243 424.395 2.53082 423.358 2.61645L423.305 2.6857C423.004 2.64867 422.707 2.60523 422.414 2.55543H421.999C422.679 2.47107 423.358 2.39092 424.038 2.31077C424.717 2.23062 425.397 2.15047 426.076 2.06611H426.491L426.265 1.27305C425.314 1.32028 425.283 1.30875 424.762 1.11507C424.725 1.10119 424.685 1.08638 424.642 1.07058C423.891 1.10062 423.124 1.18267 422.378 1.26249C420.609 1.45165 418.958 1.62829 417.923 1.07058L417.318 0.918726L417.13 1.64427C416.968 1.62257 416.78 1.59699 416.583 1.57019C415.862 1.47199 415.021 1.35744 414.902 1.35744H414.487L415.092 1.99864C416.073 2.13364 416.261 2.09987 416.903 1.77927L418.338 1.93113L419.772 2.90978L418.338 2.70731C418.043 2.77667 417.743 2.60329 417.438 2.4271C417.138 2.25409 416.834 2.07837 416.525 2.12714C416.407 2.7989 415.843 3.43947 414.902 3.96635H414.676C414.603 3.9409 414.539 3.91895 414.48 3.89904C414.111 3.77376 413.982 3.72981 413.657 3.4095C413.279 3.03828 413.845 2.66709 414.902 2.54898V2.41398L412.071 2.84231C411.709 2.92876 411.383 2.81307 411.105 2.71427C410.82 2.61275 410.584 2.52905 410.411 2.70083H409.806L408.183 2.84231C409.772 2.41829 411.634 2.24588 413.468 2.35296C413.342 2.20637 413.232 2.11253 413.143 2.03556C412.964 1.88217 412.864 1.79577 412.864 1.49242H412.676L410.411 1.64427C410.615 1.81663 410.601 1.84278 410.721 1.86182C410.801 1.87447 410.94 1.88399 411.241 1.93113L410.826 2.06611C410.059 1.95358 409.361 1.76299 408.788 1.50931H407.768L407.353 1.71178L408.598 2.13362V2.42048C408.22 2.50916 407.799 2.5555 407.372 2.5555C406.944 2.5555 406.524 2.50916 406.145 2.42048L406.117 2.44965C405.693 2.89836 404.865 3.7751 403.314 3.9897H400.444C399.742 4.14267 399.68 4.23595 399.619 4.32833C399.552 4.42956 399.485 4.52971 398.578 4.70616H397.936V3.99746L398.821 3.9897C398.998 3.75262 398.871 3.70437 398.575 3.59229C398.428 3.53684 398.241 3.46577 398.028 3.34849C400.016 3.52185 400.634 3.20127 401.292 2.86026C401.658 2.67018 402.037 2.47375 402.672 2.35296C402.47 2.2903 402.267 2.2535 402.07 2.21766C401.789 2.16664 401.518 2.11757 401.275 1.99864C400.817 2.03736 400.396 2.13737 400.067 2.28547L399.652 1.99864C397.49 1.96566 395.328 1.82042 393.168 1.67535C389.82 1.45051 386.478 1.22606 383.156 1.42051C382.761 1.39615 382.371 1.3608 381.982 1.32555C381.294 1.26317 380.61 1.20115 379.911 1.20115C376.613 1.44537 373.244 1.44537 369.947 1.20115C370.356 1.13366 368.133 0.627457 367.493 0.627457C367.244 0.68718 367.022 0.768844 366.844 0.867475C366.675 0.966105 366.542 1.07961 366.471 1.20115C361.129 1.73194 355.627 1.85174 350.204 1.55547L348.764 0.914338H347.973L348.578 1.48803L348.391 1.6905C346.039 1.62041 344.025 1.60825 342.191 1.59717C337.843 1.57089 334.502 1.55071 330.044 0.77931H329.058V0.914338C329.251 0.945863 329.445 0.977388 329.64 1.009C330.59 1.16347 331.553 1.31993 332.498 1.48803L332.907 1.6905C332.773 1.69747 332.631 1.69747 332.498 1.6905C330.773 1.45367 328.933 1.45367 327.209 1.6905C326.951 1.61231 326.738 1.50661 326.596 1.38292C326.453 1.25923 326.373 1.12141 326.382 0.981781C325.396 1.13363 325.395 1.3531 325.395 1.84235C321.627 1.70737 314.907 1.62299 310.302 1.62299L305.2 1.84235C302.702 1.67975 300.178 1.60637 297.653 1.62299C294.658 1.93929 291.564 2.01359 288.515 1.84235C288.053 1.90663 287.627 2.02713 287.307 2.19076C286.978 2.3544 286.756 2.55485 286.667 2.77037H286.48C285.972 2.58245 285.988 2.50616 286.03 2.3067C286.044 2.2375 286.062 2.15348 286.062 2.04482C283.547 1.86741 280.987 1.91907 278.515 2.19668C277.004 1.97785 275.413 1.90311 273.831 1.97731L269.342 2.12923C267.778 1.8914 266.124 1.79392 264.471 1.84235C264.27 1.86547 264.066 1.88908 263.859 1.91302C262.858 2.02886 261.791 2.15233 260.693 2.26419C258.423 2.30478 255.886 2.26129 253.202 2.21528C249.19 2.14652 244.849 2.07212 240.578 2.26419C239.77 2.29844 237.983 2.19363 236.344 2.09752C234.754 2.00423 233.302 1.91914 233.022 1.97731C232.82 2.01998 232.779 2.0979 232.738 2.17604C232.665 2.31418 232.592 2.45303 231.627 2.39915C230.314 2.32564 229.028 2.23935 227.717 2.15139L227.653 2.14714L227.138 2.11234C224.036 2.28982 220.898 2.31807 217.778 2.19668C213.796 2.32819 209.854 2.31075 206.054 2.29394C201.565 2.27409 197.274 2.25511 193.351 2.48356C192.764 2.51633 192.053 2.40189 191.352 2.289C190.61 2.16942 189.878 2.05158 189.316 2.11234C186.604 2.28113 183.867 2.28113 181.156 2.11234C177.396 2.3034 173.618 2.39912 169.831 2.39915C164.649 2.02021 159.378 1.97478 154.169 2.26419C152.101 2.41193 149.888 2.30701 147.769 2.20661C146.017 2.12354 144.329 2.04358 142.844 2.11234C138.19 2.33206 133.202 2.35471 128.257 2.37717C122.569 2.403 116.936 2.42858 111.929 2.75352C110.529 2.84965 108.693 2.77813 106.728 2.70155C103.864 2.58995 100.725 2.46762 98.2578 2.83788L98.6756 2.39915L95.4311 2.75352L95.0133 2.48356C93.4489 2.48311 91.9111 2.65097 90.5244 2.97289C89.5377 2.77344 88.5867 2.53631 87.6889 2.26419C85.7689 2.55546 83.6557 2.47318 81.5688 2.39193C78.9408 2.28962 76.3545 2.18891 74.2489 2.83786Z" fill="#294F4A"/>
</svg>
